<svg xmlns="http://www.w3.org/2000/svg" width="1em" height="1em" viewBox="0 0 24 24"><path fill="currentColor" d="M13 8V4q0-.425.288-.713T14 3h6q.425 0 .713.288T21 4v4q0 .425-.288.713T20 9h-6q-.425 0-.713-.288T13 8ZM3 12V4q0-.425.288-.713T4 3h6q.425 0 .713.288T11 4v8q0 .425-.288.713T10 13H4q-.425 0-.713-.288T3 12Zm10 8v-8q0-.425.288-.713T14 11h6q.425 0 .713.288T21 12v8q0 .425-.288.713T20 21h-6q-.425 0-.713-.288T13 20ZM3 20v-4q0-.425.288-.713T4 15h6q.425 0 .713.288T11 16v4q0 .425-.288.713T10 21H4q-.425 0-.713-.288T3 20Z"/></svg>