<svg width="253" height="276" viewBox="0 0 253 276" fill="none" xmlns="http://www.w3.org/2000/svg">
<path d="M148.208 117.243L116.437 85.4726V16.5934C116.437 12.3804 118.111 8.33983 121.09 5.36074C124.069 2.38165 128.11 0.708008 132.323 0.708008C136.536 0.708008 140.576 2.38165 143.556 5.36074C146.535 8.33983 148.208 12.3804 148.208 16.5934V117.243ZM237.167 150.031V54.7184C237.167 50.5054 235.493 46.4648 232.514 43.4857C229.535 40.5066 225.494 38.833 221.281 38.833C217.068 38.833 213.028 40.5066 210.049 43.4857C207.069 46.4648 205.396 50.5054 205.396 54.7184V127.791H192.687V29.3018C192.687 25.0887 191.014 21.0482 188.035 18.0691C185.056 15.09 181.015 13.4163 176.802 13.4163C172.589 13.4163 168.548 15.09 165.569 18.0691C162.59 21.0482 160.917 25.0887 160.917 29.3018V129.952L237.167 206.202V150.031ZM103.729 42.0101C103.729 33.2413 96.6125 26.1247 87.8437 26.1247C79.3291 26.1247 72.5937 32.8601 72.0854 41.1205L103.729 72.7643V42.0101ZM148.208 117.243L116.437 85.4726V16.5934C116.437 12.3804 118.111 8.33983 121.09 5.36074C124.069 2.38165 128.11 0.708008 132.323 0.708008C136.536 0.708008 140.576 2.38165 143.556 5.36074C146.535 8.33983 148.208 12.3804 148.208 16.5934V117.243ZM237.167 150.031V54.7184C237.167 50.5054 235.493 46.4648 232.514 43.4857C229.535 40.5066 225.494 38.833 221.281 38.833C217.068 38.833 213.028 40.5066 210.049 43.4857C207.069 46.4648 205.396 50.5054 205.396 54.7184V127.791H192.687V29.3018C192.687 25.0887 191.014 21.0482 188.035 18.0691C185.056 15.09 181.015 13.4163 176.802 13.4163C172.589 13.4163 168.548 15.09 165.569 18.0691C162.59 21.0482 160.917 25.0887 160.917 29.3018V129.952L237.167 206.202V150.031ZM103.729 42.0101C103.729 33.2413 96.6125 26.1247 87.8437 26.1247C79.3291 26.1247 72.5937 32.8601 72.0854 41.1205L103.729 72.7643V42.0101ZM252.29 257.289L18.7104 23.7101L0.664551 41.6288L72.2125 113.177L71.9583 112.923V167.568C57.8521 159.435 39.1708 148.887 38.9166 148.76C36.7562 147.616 34.5958 146.981 32.0541 146.981C28.75 146.981 25.7 148.125 23.1583 150.285C22.65 150.412 8.41663 164.391 8.41663 164.391L94.8333 255.637C102.077 263.262 111.99 267.583 122.537 267.583H199.042C206.921 267.583 214.037 265.168 220.01 260.975L219.756 260.721L234.371 275.335L252.29 257.289Z" fill="black"/>
</svg>
