<svg width="40" height="40" viewBox="0 0 40 40" fill="none" xmlns="http://www.w3.org/2000/svg">
<path d="M12.8667 27.4267L15.8017 26.58L33.4733 8.6967C33.6127 8.55386 33.6903 8.36192 33.6894 8.16234C33.6885 7.96276 33.6091 7.77156 33.4683 7.63003L32.41 6.56003C32.3416 6.48976 32.2599 6.43381 32.1697 6.39546C32.0794 6.3571 31.9824 6.33711 31.8844 6.33665C31.7863 6.33618 31.6892 6.35525 31.5986 6.39275C31.5079 6.43024 31.4257 6.48541 31.3567 6.55503L13.7317 24.3917L12.865 27.425L12.8667 27.4267ZM34.505 4.44003L35.5633 5.5117C37.0233 6.99003 37.0367 9.37503 35.59 10.8384L17.38 29.2684L11.1067 31.075C10.7237 31.1822 10.3138 31.1331 9.96693 30.9384C9.6201 30.7438 9.36466 30.4195 9.25666 30.0367C9.1763 29.7615 9.17514 29.4692 9.25333 29.1934L11.0783 22.7934L29.24 4.4117C29.5853 4.06396 29.9965 3.78846 30.4494 3.60128C30.9023 3.4141 31.388 3.31898 31.8781 3.32146C32.3682 3.32394 32.8528 3.42398 33.3039 3.61574C33.7549 3.8075 34.1632 4.08881 34.505 4.44003ZM15.3067 6.3617C16.1333 6.3617 16.8033 7.04003 16.8033 7.8767C16.8046 8.07448 16.767 8.27058 16.6924 8.45378C16.6179 8.63699 16.508 8.80371 16.369 8.94442C16.23 9.08512 16.0646 9.19705 15.8824 9.27379C15.7001 9.35054 15.5044 9.3906 15.3067 9.3917H9.32C7.66666 9.3917 6.32666 10.7484 6.32666 12.42V30.5967C6.32666 32.27 7.66666 33.6267 9.32 33.6267H27.28C28.9333 33.6267 30.275 32.27 30.275 30.5967V24.5384C30.275 23.7017 30.945 23.0234 31.7717 23.0234C32.5983 23.0234 33.2683 23.7017 33.2683 24.54V30.5967C33.2683 33.9434 30.5867 36.6567 27.28 36.6567H9.32C6.01333 36.6567 3.33333 33.9434 3.33333 30.5967V12.42C3.33333 9.07503 6.01333 6.3617 9.32 6.3617H15.3067Z" fill="black"/>
</svg>
