<svg width="537" height="386" viewBox="0 0 537 386" fill="none" xmlns="http://www.w3.org/2000/svg">
<g filter="url(#filter0_dddddd_346_207)" transform='matrix(1,0,0,1,-80,0)'>
<path d="M90.6115 205.054L326.181 70.9838C331.931 67.7122 338.44 66.0083 345.056 66.0427C351.672 66.0771 358.163 67.8486 363.879 71.1798L606.656 212.548C609.841 214.4 612.483 217.057 614.316 220.254C616.149 223.45 617.109 227.072 617.098 230.757C617.087 234.441 616.107 238.058 614.255 241.244C612.404 244.429 609.746 247.072 606.55 248.905L379.983 378.994C372.308 383.406 363.609 385.728 354.756 385.728C345.902 385.728 337.204 383.406 329.528 378.994L90.5361 241.501C87.3277 239.658 84.6634 237 82.8131 233.796C80.9629 230.592 79.9924 226.955 80 223.255C80.0077 219.555 80.9932 215.923 82.8567 212.727C84.7202 209.53 87.3955 206.883 90.6115 205.054Z" fill="#E5E1E1"/>
<path opacity="0.32" d="M276.389 341.642L288.98 333.122L380.21 257.726L358.616 248.452C345.663 251.92 322.426 262.024 310.362 267.527C292.554 275.731 274.519 283.165 256.273 290.342C246.17 294.364 236.052 298.324 225.918 302.225C244.074 313.655 260.359 327.468 276.389 341.642Z" fill="url(#paint0_linear_346_207)"/>
<path d="M181.178 128.361V128.149" stroke="#61587D" stroke-width="1.015"/>
<path d="M175.583 128.361V128.149" stroke="#61587D" stroke-width="1.015"/>
<path d="M164.41 128.149V128.361" stroke="#61587D" stroke-width="1.015"/>
<path d="M170.004 128.361V128.149" stroke="#61587D" stroke-width="1.015"/>
<path d="M158.815 128.149V128.361" stroke="#61587D" stroke-width="1.015"/>
<path d="M368.584 267.708L350.353 259.656V120.429L374.299 111.879" fill="#7F1D18"/>
<path d="M379.999 93.7837V257.651L368.583 267.708V109.873" fill="#AA3529"/>
<path d="M271.805 127.863V67.2291C271.805 67.2291 270.206 56.4625 289.357 46.8871C308.508 37.3118 371.931 0.216684 371.931 0.216684C371.931 0.216684 403.04 -5.36266 419.793 40.1015C422.728 47.7524 424.605 55.7682 425.372 63.9268V111.502L333.223 162.561L271.805 127.863Z" fill="#5E98D0"/>
<path d="M275.363 123.445V66.4299C275.363 66.4299 277.354 50.476 293.715 56.0554C310.076 61.6347 327.221 83.5751 330.81 103.917V155.368L277.354 124.259" fill="#E98669"/>
<path d="M355.54 17.1659C355.54 15.7335 354.379 14.5723 352.946 14.5723C351.514 14.5723 350.353 15.7335 350.353 17.1659V119.675C350.353 121.107 351.514 122.269 352.946 122.269C354.379 122.269 355.54 121.107 355.54 119.675V17.1659Z" fill="#AA3529"/>
<path d="M355.51 14.5722C355.51 14.5722 391.006 10.9833 393.404 11.3754C395.802 11.7675 355.51 50.084 355.51 50.084" fill="#AA3529"/>
<path d="M274.504 128.889L238.6 172.362C238.6 172.362 222.239 197.5 248.974 211.855C275.71 226.211 300.832 196.293 300.832 196.293L331.549 161.143L274.504 128.889Z" fill="#F9B246"/>
<path d="M271.367 127.863L235.463 171.337C235.463 171.337 219.102 196.474 245.838 210.83C272.574 225.185 297.696 195.268 297.696 195.268L328.367 160.178L271.367 127.863Z" fill="#FFD7CB"/>
<path d="M323.843 84.7061C316.515 71.2403 304.889 59.6745 293.685 55.8293C277.354 50.2499 275.363 66.1435 275.363 66.1435V123.445C293.458 108.939 302.159 102.756 323.843 84.7061Z" fill="#CD725F"/>
<path d="M408.535 97.098C414.799 84.4014 411.661 70.0553 401.526 65.0552C391.391 60.055 378.097 66.2942 371.833 78.9908C365.569 91.6874 368.707 106.033 378.842 111.034C388.977 116.034 402.271 109.795 408.535 97.098Z" fill="#FFD7CB"/>
<path d="M398.109 73.9997C399.225 74.8603 400.113 75.9808 400.696 77.2634C401.28 78.546 401.541 79.9518 401.456 81.3584C401.526 84.0134 400.925 86.6431 399.707 89.0036C398.816 91.07 397.21 92.7458 395.183 93.7234C394.737 93.9926 394.205 94.0817 393.695 93.9724C393.185 93.8632 392.736 93.5639 392.439 93.1353C391.864 94.4536 390.838 95.5232 389.544 96.1512C388.996 96.4266 388.373 96.5137 387.77 96.3993C387.168 96.2848 386.62 95.975 386.211 95.5179C385.133 94.1902 384.595 92.505 384.703 90.798C384.622 88.6693 385.106 86.557 386.106 84.6758C386.861 83.0683 388.151 81.7731 389.755 81.0116C390.154 80.8213 390.595 80.7328 391.037 80.7538C391.479 80.7749 391.909 80.9048 392.288 81.1322L392.469 80.1822L395.485 78.9457L394.822 88.1139C394.822 88.7322 394.822 89.275 394.822 89.7274C394.822 90.1798 395.048 90.4663 395.47 90.2854C396.48 89.6663 397.238 88.7103 397.611 87.5862C398.303 86.0429 398.629 84.3603 398.561 82.6703C398.639 81.6131 398.454 80.5531 398.022 79.5849C397.591 78.6166 396.926 77.7702 396.088 77.1211C395.238 76.5825 394.261 76.2767 393.255 76.2343C392.25 76.192 391.251 76.4146 390.358 76.8798C387.766 78.0583 385.643 80.0701 384.326 82.5949C382.729 85.2824 381.924 88.3665 382.004 91.4917C381.952 92.7015 382.148 93.9093 382.581 95.0401C383.015 96.171 383.675 97.2009 384.522 98.0663C386.136 99.5742 388.353 99.725 391.187 98.5488C393.764 97.3509 396.057 95.6186 397.913 93.4671L399.029 96.2568C396.88 98.6824 394.237 100.621 391.278 101.942C387.568 103.45 384.598 103.299 382.351 101.414C380.104 99.529 378.928 96.6488 378.837 92.7734C378.75 88.6954 379.856 84.6806 382.019 81.2227C383.862 77.8962 386.728 75.2523 390.192 73.683C393.329 72.3762 395.968 72.4817 398.109 73.9997ZM391.549 90.1647C392.049 89.1208 392.297 87.9742 392.273 86.8171C392.303 86.4644 392.257 86.1094 392.137 85.7762C392.018 85.4431 391.827 85.1398 391.579 84.887C391.379 84.7032 391.128 84.5845 390.858 84.5468C390.589 84.5091 390.315 84.5541 390.072 84.6758C389.365 85.0531 388.826 85.6831 388.564 86.4401C388.138 87.429 387.942 88.5013 387.991 89.5766C387.972 90.3535 388.154 91.1221 388.518 91.8084C388.566 91.921 388.635 92.023 388.723 92.108C388.811 92.193 388.915 92.2594 389.029 92.3031C389.143 92.3468 389.265 92.3669 389.387 92.3622C389.509 92.3575 389.629 92.3281 389.74 92.2758C390.601 91.8301 391.263 91.0764 391.595 90.1647" fill="#AA3529"/>
<path d="M461.291 167.446L421.421 146.29L581.76 109.662L462.105 172.332L461.291 167.446Z" fill="#5E98D0"/>
<path d="M462.105 172.332L471.063 204.074L581.76 109.662L462.105 172.332Z" fill="#5C5196"/>
<path d="M480.834 182.103L523.961 204.074L581.76 109.662L480.834 182.103Z" fill="#5E98D0"/>
<path d="M480.834 182.104L471.062 204.074L490.847 187.2L480.834 182.104Z" fill="#231069"/>
<path d="M415.164 219.379C374.057 229.648 323.662 223.224 299.43 184.229C280.626 153.995 288.271 111.924 314.992 89.0488C318.008 86.5154 313.665 82.2781 310.724 84.7813C281.983 109.391 274.127 154.855 294.137 187.321C319.772 228.713 372.911 236.178 416.687 225.245C420.532 224.25 418.933 218.444 415.164 219.379Z" fill="#24116A"/>
<path d="M446.468 208.296L433.409 214.328C429.896 215.956 432.957 221.159 436.425 219.53L449.484 213.499C453.028 211.87 449.967 206.668 446.468 208.296Z" fill="#24116A"/>
<path style="mix-blend-mode:multiply" d="M157.594 209.035L104.439 234.851C112.26 240.079 120.519 244.62 129.124 248.422L176.579 215.685" fill="url(#paint1_linear_346_207)"/>
<path d="M150.989 187.472C150.989 187.472 148.757 213.921 162.872 218.58C176.986 223.24 183.983 209.729 183.485 186.446" fill="#5E98D0"/>
<path d="M167.525 196.335C176.498 196.05 183.639 191.615 183.474 186.429C183.309 181.244 175.901 177.271 166.928 177.556C157.955 177.841 150.815 182.276 150.979 187.462C151.144 192.648 158.552 196.62 167.525 196.335Z" fill="#F2696A"/>
<path d="M170.728 165.938C170.728 165.938 164.063 156.891 166.641 150.482C166.641 150.482 168.813 146.32 172.04 145.566C172.04 145.566 172.04 154.297 175.206 153.106C178.373 151.914 174.92 143.968 174.92 143.968C174.92 143.968 178.192 139.233 181.932 139.263C185.671 139.293 182.188 147.421 184.752 146.018C187.315 144.616 184.661 137.861 187.556 136.971C190.214 136.288 192.914 135.784 195.639 135.463C195.639 135.463 198.655 143.334 195.925 144.51C193.196 145.687 189.155 146.26 191.16 147.949C193.166 149.637 198.7 147.451 198.7 147.451C198.7 147.451 199.183 151.975 197.373 153.92C195.564 155.865 184.375 151.99 186.441 155.775C188.506 159.56 195.669 157.358 195.669 157.358C193.576 160.51 190.905 163.237 187.798 165.395C183.485 167.959 170.728 165.938 170.728 165.938Z" fill="#8CCC00"/>
<path d="M172.96 188.919C172.96 188.919 168.21 184.516 168.994 180.58C169.411 179.189 170.316 177.995 171.542 177.217C171.542 177.217 172.447 182.179 174.136 181.153C175.825 180.128 172.99 175.996 172.99 175.996C172.99 175.996 174.332 172.98 176.473 172.573C178.614 172.166 177.499 177.172 178.795 176.102C180.092 175.031 177.875 171.487 179.414 170.658C180.846 169.977 182.322 169.392 183.832 168.909C183.832 168.909 186.38 173.056 184.963 174.051C183.545 175.046 181.298 175.77 182.625 176.509C183.952 177.248 186.818 175.423 186.818 175.423C187.245 176.659 187.245 178.002 186.818 179.238C186.003 180.565 179.278 179.525 180.786 181.455C182.294 183.385 186.26 181.455 186.26 181.455C185.405 183.466 184.177 185.298 182.641 186.853C180.409 188.723 172.96 188.919 172.96 188.919Z" fill="#8CCC00"/>
<path d="M155.709 179.63C155.709 179.63 144.535 180.415 140.479 174.775C140.479 174.775 138.126 170.719 139.227 167.582C139.227 167.582 146.571 172.317 147.28 168.954C147.988 165.592 139.423 164.295 139.423 164.295C139.423 164.295 137.191 159.002 139.227 155.85C141.263 152.699 146.254 160.012 146.435 157.102C146.616 154.192 139.499 152.804 140.298 149.864C141.131 147.246 142.138 144.687 143.314 142.204C143.314 142.204 151.577 143.892 151.14 146.848C150.703 149.804 148.968 153.498 151.472 152.714C153.975 151.93 155.06 146.154 155.06 146.154C155.06 146.154 159.087 148.145 159.795 150.678C160.504 153.212 151.17 160.6 155.483 160.887C159.795 161.173 161.861 153.89 161.861 153.89C163.396 157.351 164.26 161.07 164.41 164.853C164.274 169.98 155.709 179.63 155.709 179.63Z" fill="#8CCC00"/>
<path d="M193.302 138.976L189.818 142.158C189.894 140.891 190.014 139.625 190.165 138.358C190.256 137.695 189.215 137.438 189.14 138.117C188.929 139.816 188.778 141.515 188.687 143.214C185.672 146.064 182.656 149.049 179.821 152.261C179.505 150.125 179.374 147.966 179.429 145.807C179.429 145.129 178.388 145.159 178.373 145.807C178.319 148.302 178.506 150.797 178.931 153.256C177.146 155.288 175.474 157.418 173.925 159.635C172.03 157.187 170.702 154.349 170.034 151.326C169.883 150.663 168.873 150.979 169.024 151.643C169.73 154.869 171.164 157.892 173.216 160.479L173.322 160.57C168.629 167.264 166.05 175.211 165.918 183.385C165.918 184.063 166.973 184.033 166.973 183.385C167.105 175.504 169.577 167.841 174.076 161.369C178.383 162.366 182.824 162.656 187.225 162.229C187.903 162.229 187.873 161.113 187.225 161.173C183.049 161.578 178.836 161.324 174.739 160.419C176.882 157.319 179.251 154.38 181.826 151.628H181.917C184.39 151.764 186.863 151.914 189.351 151.914C190.892 152.079 192.45 151.846 193.875 151.236C194.478 150.904 193.875 150.014 193.317 150.346C191.643 151.266 189.23 150.889 187.406 150.829C185.898 150.829 184.269 150.708 182.701 150.618C186.35 146.772 190.241 143.168 194.071 139.73C194.583 139.248 193.814 138.524 193.302 138.976Z" fill="#06577A"/>
<path d="M161.183 160.6C161.205 160.468 161.176 160.332 161.102 160.221C161.028 160.109 160.914 160.029 160.783 159.999C160.653 159.968 160.515 159.988 160.399 160.055C160.283 160.122 160.196 160.231 160.157 160.359C159.139 164.295 156.869 167.794 153.688 170.326C152.381 167.039 151.18 163.712 150.084 160.344C152.555 157.717 154.56 154.688 156.01 151.387C156.282 150.769 155.347 150.256 155.076 150.889C153.738 153.92 151.92 156.716 149.692 159.168C148.471 155.307 147.37 151.417 146.42 147.466C146.254 146.803 145.244 147.119 145.41 147.783C146.707 153.181 148.265 158.494 150.084 163.722C148.077 163.395 146.117 162.823 144.249 162.018C143.63 161.746 143.118 162.681 143.751 162.953C145.881 163.893 148.128 164.542 150.431 164.883C151.653 168.336 153.01 171.729 154.457 175.092C151.29 175.09 148.151 174.502 145.199 173.357C144.565 173.116 144.068 174.036 144.701 174.292C147.967 175.566 151.45 176.19 154.955 176.132C156.785 180.314 158.795 184.426 160.987 188.467C161.303 189.07 162.208 188.467 161.876 187.909C158.978 182.528 156.38 176.991 154.095 171.322C157.578 168.63 160.071 164.859 161.183 160.6Z" fill="#06577A"/>
<path d="M180.771 173.674L178.011 178.65C177.641 178.18 177.318 177.675 177.046 177.142C176.73 176.539 175.84 177.142 176.156 177.7C176.511 178.375 176.941 179.007 177.438 179.585L174.422 184.968C174.055 184.642 173.811 184.201 173.729 183.717C173.623 183.053 172.568 183.083 172.673 183.717C172.795 184.563 173.238 185.329 173.91 185.858L170.17 192.598C170.104 192.722 170.09 192.868 170.131 193.002C170.172 193.136 170.265 193.249 170.389 193.315C170.513 193.381 170.658 193.395 170.792 193.354C170.926 193.313 171.039 193.22 171.105 193.096L176.036 184.199C176.91 184.186 177.777 184.028 178.599 183.732C179.233 183.506 178.931 182.48 178.283 182.722C177.756 182.906 177.209 183.028 176.654 183.083L181.645 174.036C181.639 173.938 181.605 173.843 181.548 173.763C181.49 173.683 181.412 173.621 181.321 173.583C181.23 173.545 181.13 173.534 181.033 173.55C180.936 173.566 180.845 173.609 180.771 173.674Z" fill="#06577A"/>
</g>
<defs>
<filter id="filter0_dddddd_346_207" x="0" y="0" width="697.098" height="565.728" filterUnits="userSpaceOnUse" color-interpolation-filters="sRGB">
<feFlood flood-opacity="0" result="BackgroundImageFix"/>
<feColorMatrix in="SourceAlpha" type="matrix" values="0 0 0 0 0 0 0 0 0 0 0 0 0 0 0 0 0 0 127 0" result="hardAlpha"/>
<feOffset dy="2.76726"/>
<feGaussianBlur stdDeviation="1.1069"/>
<feColorMatrix type="matrix" values="0 0 0 0 0 0 0 0 0 0 0 0 0 0 0 0 0 0 0.0224916 0"/>
<feBlend mode="normal" in2="BackgroundImageFix" result="effect1_dropShadow_346_207"/>
<feColorMatrix in="SourceAlpha" type="matrix" values="0 0 0 0 0 0 0 0 0 0 0 0 0 0 0 0 0 0 127 0" result="hardAlpha"/>
<feOffset dy="6.6501"/>
<feGaussianBlur stdDeviation="2.66004"/>
<feColorMatrix type="matrix" values="0 0 0 0 0 0 0 0 0 0 0 0 0 0 0 0 0 0 0.0323114 0"/>
<feBlend mode="normal" in2="effect1_dropShadow_346_207" result="effect2_dropShadow_346_207"/>
<feColorMatrix in="SourceAlpha" type="matrix" values="0 0 0 0 0 0 0 0 0 0 0 0 0 0 0 0 0 0 127 0" result="hardAlpha"/>
<feOffset dy="12.5216"/>
<feGaussianBlur stdDeviation="5.00862"/>
<feColorMatrix type="matrix" values="0 0 0 0 0 0 0 0 0 0 0 0 0 0 0 0 0 0 0.04 0"/>
<feBlend mode="normal" in2="effect2_dropShadow_346_207" result="effect3_dropShadow_346_207"/>
<feColorMatrix in="SourceAlpha" type="matrix" values="0 0 0 0 0 0 0 0 0 0 0 0 0 0 0 0 0 0 127 0" result="hardAlpha"/>
<feOffset dy="22.3363"/>
<feGaussianBlur stdDeviation="8.93452"/>
<feColorMatrix type="matrix" values="0 0 0 0 0 0 0 0 0 0 0 0 0 0 0 0 0 0 0.0476886 0"/>
<feBlend mode="normal" in2="effect3_dropShadow_346_207" result="effect4_dropShadow_346_207"/>
<feColorMatrix in="SourceAlpha" type="matrix" values="0 0 0 0 0 0 0 0 0 0 0 0 0 0 0 0 0 0 127 0" result="hardAlpha"/>
<feOffset dy="41.7776"/>
<feGaussianBlur stdDeviation="16.711"/>
<feColorMatrix type="matrix" values="0 0 0 0 0 0 0 0 0 0 0 0 0 0 0 0 0 0 0.0575083 0"/>
<feBlend mode="normal" in2="effect4_dropShadow_346_207" result="effect5_dropShadow_346_207"/>
<feColorMatrix in="SourceAlpha" type="matrix" values="0 0 0 0 0 0 0 0 0 0 0 0 0 0 0 0 0 0 127 0" result="hardAlpha"/>
<feOffset dy="100"/>
<feGaussianBlur stdDeviation="40"/>
<feColorMatrix type="matrix" values="0 0 0 0 0 0 0 0 0 0 0 0 0 0 0 0 0 0 0.08 0"/>
<feBlend mode="normal" in2="effect5_dropShadow_346_207" result="effect6_dropShadow_346_207"/>
<feBlend mode="normal" in="SourceGraphic" in2="effect6_dropShadow_346_207" result="shape"/>
</filter>
<linearGradient id="paint0_linear_346_207" x1="249.593" y1="330.333" x2="340.084" y2="245.21" gradientUnits="userSpaceOnUse">
<stop stop-opacity="0"/>
<stop offset="0.99" stop-color="#552800"/>
</linearGradient>
<linearGradient id="paint1_linear_346_207" x1="182.309" y1="191.272" x2="123.273" y2="239.329" gradientUnits="userSpaceOnUse">
<stop stop-color="#D4A397"/>
<stop offset="1" stop-color="white"/>
</linearGradient>
</defs>
</svg>
