<?xml version="1.0" ?><!-- Uploaded to: SVG Repo, www.svgrepo.com, Generator: SVG Repo Mixer Tools -->
<svg width="800px" height="800px" viewBox="0 0 28 28" fill="none" xmlns="http://www.w3.org/2000/svg"><path d="M8 7.29805C8 6.85622 8.35817 6.49805 8.8 6.49805H25.2C25.6418 6.49805 26 6.85622 26 7.29805V7.69805C26 8.13987 25.6418 8.49805 25.2 8.49805H8.8C8.35817 8.49805 8 8.13987 8 7.69805V7.29805Z" fill="#000000"/><path d="M8 21.298C8 20.8562 8.35817 20.498 8.8 20.498H25.2C25.6418 20.498 26 20.8562 26 21.298V21.698C26 22.1399 25.6418 22.498 25.2 22.498H8.8C8.35817 22.498 8 22.1399 8 21.698V21.298Z" fill="#000000"/><path d="M8 14.298C8 13.8562 8.35817 13.498 8.8 13.498H25.2C25.6418 13.498 26 13.8562 26 14.298V14.698C26 15.1399 25.6418 15.498 25.2 15.498H8.8C8.35817 15.498 8 15.1399 8 14.698V14.298Z" fill="#000000"/><path d="M5 7.5C5 8.32843 4.32843 9 3.5 9C2.67157 9 2 8.32843 2 7.5C2 6.67157 2.67157 6 3.5 6C4.32843 6 5 6.67157 5 7.5Z" fill="#000000"/><path d="M5 21.498C5 22.3265 4.32843 22.998 3.5 22.998C2.67157 22.998 2 22.3265 2 21.498C2 20.6696 2.67157 19.998 3.5 19.998C4.32843 19.998 5 20.6696 5 21.498Z" fill="#000000"/><path d="M5 14.498C5 15.3265 4.32843 15.998 3.5 15.998C2.67157 15.998 2 15.3265 2 14.498C2 13.6696 2.67157 12.998 3.5 12.998C4.32843 12.998 5 13.6696 5 14.498Z" fill="#000000"/></svg>