<svg width="300" height="300" viewBox="0 0 334 334" fill="none" xmlns="http://www.w3.org/2000/svg">
<path d="M167 27.833C90.18 27.833 27.8333 90.1797 27.8333 167C27.8333 243.82 90.18 306.166 167 306.166C243.82 306.166 306.167 243.82 306.167 167C306.167 90.1797 243.82 27.833 167 27.833ZM167 180.916C159.346 180.916 153.083 174.654 153.083 167V111.333C153.083 103.679 159.346 97.4163 167 97.4163C174.654 97.4163 180.917 103.679 180.917 111.333V167C180.917 174.654 174.654 180.916 167 180.916ZM180.917 236.583H153.083V208.75H180.917V236.583Z" fill="black"/>
</svg>
