<svg width="308" height="280" viewBox="0 0 308 280" fill="none" xmlns="http://www.w3.org/2000/svg">
<path d="M126.167 59.283C126.167 32.8413 109.467 9.18301 84.4166 0.833008V52.3247H42.6666V0.833008C17.6166 9.18301 0.916626 32.8413 0.916626 59.283C0.916626 85.7247 17.6166 109.383 42.6666 117.733V270.816C42.6666 276.383 45.45 279.166 49.625 279.166H77.4583C81.6333 279.166 84.4166 276.383 84.4166 272.208V119.125C109.467 110.775 126.167 87.1163 126.167 59.283ZM209.667 84.333C155.392 85.7247 112.25 128.866 112.25 181.75C112.25 236.025 155.392 279.166 209.667 279.166C263.942 279.166 307.083 236.025 307.083 181.75C307.083 127.475 263.942 84.333 209.667 84.333ZM209.667 251.333C170.7 251.333 140.083 220.716 140.083 181.75C140.083 142.783 170.7 112.166 209.667 112.166C248.633 112.166 279.25 142.783 279.25 181.75C279.25 220.716 248.633 251.333 209.667 251.333ZM195.75 126.083V195.666L245.85 226.283L256.983 209.583L216.625 185.925V126.083H195.75Z" fill="black"/>
</svg>