<svg width="40" height="40" viewBox="0 0 40 40" fill="none" xmlns="http://www.w3.org/2000/svg">
<path d="M18.3333 28.334H21.6667V21.6673H28.3333V18.334H21.6667V11.6673H18.3333V18.334H11.6667V21.6673H18.3333V28.334ZM20 36.6673C17.6945 36.6673 15.5278 36.2295 13.5 35.354C11.4722 34.4784 9.70834 33.2912 8.20834 31.7923C6.70834 30.2923 5.52112 28.5284 4.64668 26.5007C3.77223 24.4729 3.33445 22.3062 3.33334 20.0007C3.33334 17.6951 3.77112 15.5284 4.64668 13.5007C5.52223 11.4729 6.70945 9.70898 8.20834 8.20898C9.70834 6.70898 11.4722 5.52176 13.5 4.64732C15.5278 3.77287 17.6945 3.3351 20 3.33398C22.3056 3.33398 24.4722 3.77176 26.5 4.64732C28.5278 5.52287 30.2917 6.7101 31.7917 8.20898C33.2917 9.70898 34.4795 11.4729 35.355 13.5007C36.2306 15.5284 36.6678 17.6951 36.6667 20.0007C36.6667 22.3062 36.2289 24.4729 35.3533 26.5007C34.4778 28.5284 33.2906 30.2923 31.7917 31.7923C30.2917 33.2923 28.5278 34.4801 26.5 35.3556C24.4722 36.2312 22.3056 36.6684 20 36.6673ZM20 33.334C23.7222 33.334 26.875 32.0423 29.4583 29.459C32.0417 26.8756 33.3333 23.7229 33.3333 20.0007C33.3333 16.2784 32.0417 13.1257 29.4583 10.5423C26.875 7.95898 23.7222 6.66732 20 6.66732C16.2778 6.66732 13.125 7.95898 10.5417 10.5423C7.95834 13.1257 6.66668 16.2784 6.66668 20.0007C6.66668 23.7229 7.95834 26.8756 10.5417 29.459C13.125 32.0423 16.2778 33.334 20 33.334Z" fill="black"/>
</svg>
